<?xml version="1.0" encoding="UTF-8"?>
<svg id="Calque_1" data-name="Calque 1" xmlns="http://www.w3.org/2000/svg" viewBox="0 0 24 24">
  <defs>
    <style>
      .cls-1 {
        fill: #000;
        stroke-width: 0px;
      }
    </style>
  </defs>
  <path class="cls-1" d="M10.65,3.73c-.97-.97-.97-2.55,0-3.52.06-.06.12-.11.18-.16.38-.03.77-.05,1.17-.05.31,0,.62.01.92.03.3.03.59.06.88.1-.91.65-1.64,1.49-2.18,2.52-.24.45-.43.92-.56,1.41-.14-.09-.28-.2-.41-.33Z"/>
  <path class="cls-1" d="M8.88,4.79c-.92.92-1.43,1.97-1.61,3.05-1.61.35-2.79-.38-3.51-1.08-.56-.54-1.03-1.24-1.37-2,.34-.44.71-.86,1.11-1.26,1.37-1.37,2.92-2.34,4.64-2.9-.45,1.4-.19,2.97.77,4.17,0,0-.02.01-.03.02Z"/>
  <path class="cls-1" d="M6.42,17.82c.47.47.73,1.09.73,1.76s-.26,1.28-.73,1.75c-.32.32-.73.54-1.16.64-.62-.42-1.2-.91-1.76-1.47-.47-.47-.89-.95-1.26-1.46.09-.46.32-.88.66-1.22.47-.47,1.1-.73,1.76-.73s1.29.26,1.76.73Z"/>
  <path class="cls-1" d="M4.66,15.09c-1.2,0-2.32.47-3.17,1.31-.17.17-.33.36-.46.56-.69-1.51-1.03-3.16-1.03-4.96,0-1.93.39-3.69,1.18-5.28.34.54.74,1.04,1.19,1.47,1.18,1.15,2.59,1.74,4.08,1.74.27,0,.55-.02.82-.06.23,1.37.89,2.72,1.82,3.86l-1.97,1.97s-.05.05-.07.08c-.7-.45-1.53-.69-2.39-.69Z"/>
  <path class="cls-1" d="M17.7,22.61c-1.7.93-3.6,1.39-5.7,1.39-1.65,0-3.2-.29-4.6-.87.15-.12.3-.25.43-.38.85-.85,1.32-1.98,1.32-3.17,0-.86-.24-1.69-.7-2.4.03-.02.06-.04.09-.07l1.97-1.97c1.09.88,2.35,1.52,3.65,1.78-.09,1.65.52,3.19,1.73,4.39.51.5,1.13.94,1.81,1.3Z"/>
  <path class="cls-1" d="M17.99,13.2c.07.2.15.4.25.59-.07.04-.14.09-.2.15-2.06,2.06-5,.98-6.86-.88s-2.94-4.81-.88-6.86c.06-.06.11-.13.15-.2.12.06.24.11.36.15.03,1.94.73,3.59,2.09,4.95,1.4,1.4,3.09,2.1,5.09,2.1Z"/>
  <path class="cls-1" d="M22.27,16.31c.34,0,.69-.04,1.02-.12-.58,1.59-1.51,3.03-2.79,4.31-.27.27-.56.53-.85.78-.93-.31-1.75-.79-2.35-1.39-.82-.82-1.21-1.79-1.14-2.89,1.17-.15,2.3-.66,3.29-1.65t.01-.02c.82.66,1.82.98,2.81.98Z"/>
  <path class="cls-1" d="M24,12c0,.58-.04,1.15-.11,1.7-.97.86-2.45.82-3.38-.11-.2-.2-.36-.42-.48-.67.46-.13.91-.31,1.34-.54,1.02-.54,1.85-1.27,2.5-2.18.04.29.07.58.1.88.02.3.03.61.03.92Z"/>
</svg>